<?xml version="1.0" standalone="no"?><!DOCTYPE svg PUBLIC "-//W3C//DTD SVG 1.1//EN" "http://www.w3.org/Graphics/SVG/1.1/DTD/svg11.dtd"><svg t="1609223675050" class="icon" viewBox="0 0 1024 1024" version="1.1" xmlns="http://www.w3.org/2000/svg" p-id="3465" xmlns:xlink="http://www.w3.org/1999/xlink" width="32" height="32"><defs><style type="text/css"></style></defs><path d="M824.41216 128L896 896H128L201.63584 128h622.77632z m-99.9424 112.64H301.312l-46.0288 542.72h513.7664l-44.57984-542.72z" fill="#FF4E4E" p-id="3466"></path><path d="M696.32 128v199.16288c0 101.79584-82.52416 184.32-184.32 184.32s-184.32-82.52416-184.32-184.32V128h102.4v199.16288c0 44.70272 35.80928 81.04448 80.3072 81.90464l1.6128 0.01536c44.70272 0 81.0496-35.80928 81.90464-80.3072l0.01536-1.6128V128h102.4z" fill="#FF4E4E" p-id="3467"></path><path d="M430.08 128v112.64H327.68V128h102.4z m266.24 0v112.64h-102.4V128h102.4z" fill="#FF1F1F" p-id="3468"></path></svg>